<?xml version="1.0" standalone="no"?>
<!DOCTYPE svg PUBLIC "-//W3C//DTD SVG 20010904//EN" "http://www.w3.org/TR/2001/REC-SVG-20010904/DTD/svg10.dtd">
<svg version="1.0" xmlns="http://www.w3.org/2000/svg"
 width="1280.000000pt" height="956.000000pt" viewBox="0 0 1280.000000 956.000000"
 preserveAspectRatio="xMidYMid meet">
  <g transform="translate(0.000000,956.000000) scale(0.100000,-0.100000)"
  fill="#000000" stroke="none">
    <path d="M2560 9530c-118-16-280-36-360-45-455-49-501-58-780-153-472-160-788-304-1045-475-224-150-327-325-341-582-5-92 27-680 71-1280 142-1954 151-2971 40-4470-58-776-107-1381-125-1546-11-98-20-200-20-227 0-223 139-425 365-528 138-64 374-71 562-18 64 18 110 51 239 167 53 49 116 98 138 109 85 43 204 33 441-37 103-30 161-46 228-60 74-15 335-35 544-41l231-7 11 39c17 60 64 288 126 609 31 160 60 294 66 299 5 6 9-67 9-193 0-220 6-259 59-393 16-40 45-124 64-185 18-62 36-115 38-118 3-2 50 11 105 29 198 67 411 100 776 118 277 13 684 2 953-27 129-15 152-20 165-37 42-58 89-97 128-108 37-9 55-8 125 11 45 12 111 30 147 39 36 10 133 28 216 39 147 22 153 22 245 5 60-11 145-18 234-18 147 0 214 12 315 55 42 18 51 27 60 58 50 184 88 305 97 308 5 2 22-6 37-18 67-52 95-179 72-324l-14-90 44-41c104-99 205-145 335-152 83-4 89-3 265 56 244 82 462 115 769 115 237 1 381-23 555-93 51-20 55-20 67-4 24 33 20 194-13 426-19 139-24 218-23 365 0 103 4 196 7 206 5 11 12-22 19-82 10-77 23-126 62-223 27-69 56-152 65-184 20-81 36-233 36-354 0-89 2-100 18-100 9 0 69 7 132 16 63 8 183 15 266 15 175-1 132 9 764-171 723-205 789-218 1165-227 298-6 513 6 577 34 60 27 134 105 153 162 42 127 44 329 10 821-13 195-29 526-35 735-6 209-15 531-20 715-13 437-13 1178 0 1372 29 427 91 751 241 1263 132 450 172 559 295 804 128 257 141 293 188 515 56 260 70 373 70 561 1 149-2 179-22 242-29 94-91 184-176 255-116 97-316 188-416 188-58 0-173-30-270-70-144-60-170-70-170-61 0 19 72 77 207 168 167 111 233 178 287 287 54 112 65 171 41 232-37 96-135 177-530 436-363 238-1145 718-1288 789-294 148-461 66-373-184l24-67-25-6c-38-10-196 4-297 25-99 21-122 18-154-24-40-51-50-110-55-320-3-178-6-205-25-245l-21-45 7 70c4 39 7 113 7 166 0 90-2 99-36 165-25 47-42 100-55 166-21 112-3 101-193 119-153 14-241 6-462-42-359-79-358-79-489-79-73 1-168 8-228 18l-104 18-29-35c-40-49-60-112-66-214-3-49-9-85-14-80-13 13-58 201-68 284-12 101-6 126 33 146 91 45 111 108 56 175-17 20-49 44-74 53-61 24-201 17-596-28-687-79-766-81-1000-29-201 45-245 49-328 23-79-24-173-83-227-142-28-32-36-47-33-72 4-40 43-61 143-77 38-6 71-13 73-15 12-12-157-265-177-265-4 0-13 51-20 113-18 163-2 147-144 147-234 0-521 45-833 131l-148 41-20-24c-30-36-83-159-91-208-5-32 0-70 14-128 24-90 22-112-19-302-13-58-22-137-23-207-1-61-5-109-9-105-3 4-16 38-27 76-30 99-28 169 10 263 45 111 43 150-11 248-39 70-44 87-43 137 2 61 37 178 78 259 19 36 22 51 13 54-19 6-380 53-543 70-295 32-914 79-923 71-1-2 1-52 5-112 5-60 5-123 2-139-6-29-6-29-32 27-15 31-41 98-58 147-27 77-35 91-53 90-11 0-118-14-236-29z"/>
  </g>
</svg>
